<mxfile host="app.diagrams.net" modified="2021-04-28T03:44:39.237Z" agent="5.0 (Windows NT 6.1; Win64; x64) AppleWebKit/537.36 (KHTML, like Gecko) Chrome/90.0.4430.85 Safari/537.36" etag="cN9D_rZOHI3QZeYa82BV" version="14.6.6" type="github">
  <diagram id="8cNXlBiLXLBAkxZQb8D8" name="Page-1">
    <mxGraphModel dx="1422" dy="762" grid="1" gridSize="10" guides="1" tooltips="1" connect="1" arrows="1" fold="1" page="1" pageScale="1" pageWidth="827" pageHeight="1169" math="0" shadow="0">
      <root>
        <mxCell id="0" />
        <mxCell id="1" parent="0" />
        <mxCell id="y5n3PDEYsCLpKXq8bgqE-3" value="oauth_app(app授权信息)" style="swimlane;fontStyle=0;childLayout=stackLayout;horizontal=1;startSize=26;fillColor=none;horizontalStack=0;resizeParent=1;resizeParentMax=0;resizeLast=0;collapsible=1;marginBottom=0;" vertex="1" parent="1">
          <mxGeometry x="274" y="250" width="196" height="78" as="geometry" />
        </mxCell>
        <mxCell id="y5n3PDEYsCLpKXq8bgqE-4" value="+ oauth_app_id" style="text;strokeColor=none;fillColor=none;align=left;verticalAlign=top;spacingLeft=4;spacingRight=4;overflow=hidden;rotatable=0;points=[[0,0.5],[1,0.5]];portConstraint=eastwest;" vertex="1" parent="y5n3PDEYsCLpKXq8bgqE-3">
          <mxGeometry y="26" width="196" height="26" as="geometry" />
        </mxCell>
        <mxCell id="y5n3PDEYsCLpKXq8bgqE-7" value="……" style="text;strokeColor=none;fillColor=none;align=left;verticalAlign=top;spacingLeft=4;spacingRight=4;overflow=hidden;rotatable=0;points=[[0,0.5],[1,0.5]];portConstraint=eastwest;" vertex="1" parent="y5n3PDEYsCLpKXq8bgqE-3">
          <mxGeometry y="52" width="196" height="26" as="geometry" />
        </mxCell>
        <mxCell id="y5n3PDEYsCLpKXq8bgqE-8" value="oauth_app_scope(app开放的授权域)" style="swimlane;fontStyle=0;childLayout=stackLayout;horizontal=1;startSize=26;fillColor=none;horizontalStack=0;resizeParent=1;resizeParentMax=0;resizeLast=0;collapsible=1;marginBottom=0;" vertex="1" parent="1">
          <mxGeometry x="274" y="390" width="230" height="78" as="geometry" />
        </mxCell>
        <mxCell id="y5n3PDEYsCLpKXq8bgqE-9" value="+ oauth_app_id" style="text;strokeColor=none;fillColor=none;align=left;verticalAlign=top;spacingLeft=4;spacingRight=4;overflow=hidden;rotatable=0;points=[[0,0.5],[1,0.5]];portConstraint=eastwest;" vertex="1" parent="y5n3PDEYsCLpKXq8bgqE-8">
          <mxGeometry y="26" width="230" height="26" as="geometry" />
        </mxCell>
        <mxCell id="y5n3PDEYsCLpKXq8bgqE-10" value="……" style="text;strokeColor=none;fillColor=none;align=left;verticalAlign=top;spacingLeft=4;spacingRight=4;overflow=hidden;rotatable=0;points=[[0,0.5],[1,0.5]];portConstraint=eastwest;" vertex="1" parent="y5n3PDEYsCLpKXq8bgqE-8">
          <mxGeometry y="52" width="230" height="26" as="geometry" />
        </mxCell>
        <mxCell id="y5n3PDEYsCLpKXq8bgqE-18" value="oauth_code(授权码，response_code授权模式)" style="swimlane;fontStyle=0;childLayout=stackLayout;horizontal=1;startSize=26;fillColor=none;horizontalStack=0;resizeParent=1;resizeParentMax=0;resizeLast=0;collapsible=1;marginBottom=0;" vertex="1" parent="1">
          <mxGeometry x="274" y="530" width="256" height="78" as="geometry" />
        </mxCell>
        <mxCell id="y5n3PDEYsCLpKXq8bgqE-19" value="+ oauth_code_id" style="text;strokeColor=none;fillColor=none;align=left;verticalAlign=top;spacingLeft=4;spacingRight=4;overflow=hidden;rotatable=0;points=[[0,0.5],[1,0.5]];portConstraint=eastwest;" vertex="1" parent="y5n3PDEYsCLpKXq8bgqE-18">
          <mxGeometry y="26" width="256" height="26" as="geometry" />
        </mxCell>
        <mxCell id="y5n3PDEYsCLpKXq8bgqE-20" value="……" style="text;strokeColor=none;fillColor=none;align=left;verticalAlign=top;spacingLeft=4;spacingRight=4;overflow=hidden;rotatable=0;points=[[0,0.5],[1,0.5]];portConstraint=eastwest;" vertex="1" parent="y5n3PDEYsCLpKXq8bgqE-18">
          <mxGeometry y="52" width="256" height="26" as="geometry" />
        </mxCell>
        <mxCell id="y5n3PDEYsCLpKXq8bgqE-21" value="oauth_code_scope(授权码授权域，response_code授权模式)" style="swimlane;fontStyle=0;childLayout=stackLayout;horizontal=1;startSize=26;fillColor=none;horizontalStack=0;resizeParent=1;resizeParentMax=0;resizeLast=0;collapsible=1;marginBottom=0;" vertex="1" parent="1">
          <mxGeometry x="274" y="650" width="356" height="78" as="geometry" />
        </mxCell>
        <mxCell id="y5n3PDEYsCLpKXq8bgqE-22" value="+ oauth_code_id" style="text;strokeColor=none;fillColor=none;align=left;verticalAlign=top;spacingLeft=4;spacingRight=4;overflow=hidden;rotatable=0;points=[[0,0.5],[1,0.5]];portConstraint=eastwest;" vertex="1" parent="y5n3PDEYsCLpKXq8bgqE-21">
          <mxGeometry y="26" width="356" height="26" as="geometry" />
        </mxCell>
        <mxCell id="y5n3PDEYsCLpKXq8bgqE-23" value="……" style="text;strokeColor=none;fillColor=none;align=left;verticalAlign=top;spacingLeft=4;spacingRight=4;overflow=hidden;rotatable=0;points=[[0,0.5],[1,0.5]];portConstraint=eastwest;" vertex="1" parent="y5n3PDEYsCLpKXq8bgqE-21">
          <mxGeometry y="52" width="356" height="26" as="geometry" />
        </mxCell>
        <mxCell id="y5n3PDEYsCLpKXq8bgqE-24" value="oauth_token(app开放的授权域)" style="swimlane;fontStyle=0;childLayout=stackLayout;horizontal=1;startSize=26;fillColor=none;horizontalStack=0;resizeParent=1;resizeParentMax=0;resizeLast=0;collapsible=1;marginBottom=0;" vertex="1" parent="1">
          <mxGeometry x="270" y="760" width="230" height="78" as="geometry" />
        </mxCell>
        <mxCell id="y5n3PDEYsCLpKXq8bgqE-25" value="+ oauth_token_id" style="text;strokeColor=none;fillColor=none;align=left;verticalAlign=top;spacingLeft=4;spacingRight=4;overflow=hidden;rotatable=0;points=[[0,0.5],[1,0.5]];portConstraint=eastwest;" vertex="1" parent="y5n3PDEYsCLpKXq8bgqE-24">
          <mxGeometry y="26" width="230" height="26" as="geometry" />
        </mxCell>
        <mxCell id="y5n3PDEYsCLpKXq8bgqE-26" value="……" style="text;strokeColor=none;fillColor=none;align=left;verticalAlign=top;spacingLeft=4;spacingRight=4;overflow=hidden;rotatable=0;points=[[0,0.5],[1,0.5]];portConstraint=eastwest;" vertex="1" parent="y5n3PDEYsCLpKXq8bgqE-24">
          <mxGeometry y="52" width="230" height="26" as="geometry" />
        </mxCell>
        <mxCell id="y5n3PDEYsCLpKXq8bgqE-27" value="oauth_token_scope(app开放的授权域)" style="swimlane;fontStyle=0;childLayout=stackLayout;horizontal=1;startSize=26;fillColor=none;horizontalStack=0;resizeParent=1;resizeParentMax=0;resizeLast=0;collapsible=1;marginBottom=0;" vertex="1" parent="1">
          <mxGeometry x="270" y="880" width="230" height="78" as="geometry" />
        </mxCell>
        <mxCell id="y5n3PDEYsCLpKXq8bgqE-28" value="+ oauth_token_id" style="text;strokeColor=none;fillColor=none;align=left;verticalAlign=top;spacingLeft=4;spacingRight=4;overflow=hidden;rotatable=0;points=[[0,0.5],[1,0.5]];portConstraint=eastwest;" vertex="1" parent="y5n3PDEYsCLpKXq8bgqE-27">
          <mxGeometry y="26" width="230" height="26" as="geometry" />
        </mxCell>
        <mxCell id="y5n3PDEYsCLpKXq8bgqE-29" value="……" style="text;strokeColor=none;fillColor=none;align=left;verticalAlign=top;spacingLeft=4;spacingRight=4;overflow=hidden;rotatable=0;points=[[0,0.5],[1,0.5]];portConstraint=eastwest;" vertex="1" parent="y5n3PDEYsCLpKXq8bgqE-27">
          <mxGeometry y="52" width="230" height="26" as="geometry" />
        </mxCell>
      </root>
    </mxGraphModel>
  </diagram>
</mxfile>
